<?xml version="1.0" standalone="no"?>
<!DOCTYPE svg PUBLIC "-//W3C//DTD SVG 1.1//EN" "http://www.w3.org/Graphics/SVG/1.1/DTD/svg11.dtd" >
<svg xmlns="http://www.w3.org/2000/svg">
<metadata></metadata>
<defs>
<font id="foundry_sterling_ot2_lightLt" horiz-adv-x="1187" >
<font-face units-per-em="2048" ascent="1638" descent="-410" />
<missing-glyph horiz-adv-x="495" />
<glyph horiz-adv-x="2048" />
<glyph horiz-adv-x="2048" />
<glyph unicode="&#xd;" horiz-adv-x="2048" />
<glyph unicode=" "  horiz-adv-x="495" />
<glyph unicode="&#x09;" horiz-adv-x="495" />
<glyph unicode="&#xa0;" horiz-adv-x="495" />
<glyph unicode="!" horiz-adv-x="557" d="M209 53q0 29 20.5 50.5t49.5 21.5t49 -21t20 -51q0 -29 -20 -49t-49 -20t-49.5 20t-20.5 49zM219 1366h117l-19 -1057h-79z" />
<glyph unicode="&#x22;" horiz-adv-x="550" d="M117 1366h94l-6 -457h-82zM340 1366h94l-6 -457h-82z" />
<glyph unicode="#" horiz-adv-x="1142" d="M147 616l11 78h188l41 275h-190l10 78h188l45 319h82l-45 -319h240l45 319h82l-45 -319h196l-10 -78h-197l-38 -275h196l-10 -78h-197l-49 -337h-82l49 337h-237l-49 -337h-82l49 337h-191zM428 694h240l39 275h-238z" />
<glyph unicode="$" d="M170 127l51 68q1 -1 12 -8.5t22 -15.5t30.5 -19.5t39.5 -21.5t47 -21t53.5 -18.5t59 -13t64.5 -5.5v612q-70 30 -99 43t-78.5 42.5t-82.5 61.5q-84 81 -84 213t94 223.5t250 104.5v139h78v-137q217 -8 340 -135l4 -4l-56 -55l-7 6q-8 7 -13 11.5t-16 13.5t-21 16t-26 16 t-31 15.5t-35.5 14t-41 12.5t-46 8.5t-51.5 4.5v-548q179 -69 258 -142q104 -97 104 -235q0 -155 -94 -259.5t-268 -119.5v-187h-78v183q-34 1 -67.5 4.5t-61 9.5t-54 14.5t-47.5 17t-41.5 19t-34.5 19t-28 18.5t-21.5 15.5t-15 12.5t-8.5 7zM291 1040q0 -84 63 -147 q16 -16 34.5 -30t33 -23.5t35.5 -20.5t31.5 -15.5t33 -14t27.5 -11.5v516q-116 -15 -187 -85t-71 -169zM627 74q130 20 198 97.5t68 195.5q0 97 -80 174q-62 57 -186 112v-579z" />
<glyph unicode="%" horiz-adv-x="1476" d="M92 999q0 179 76.5 277t218.5 98q130 0 205.5 -93.5t75.5 -252.5q0 -170 -76 -265t-215 -95q-132 0 -208.5 88.5t-76.5 242.5zM182 1006q0 -126 50 -197.5t145 -71.5t148 74t53 219q0 127 -49.5 201t-141.5 74q-100 0 -152.5 -78.5t-52.5 -220.5zM201 -25l983 1455 l67 -50l-983 -1448zM809 324q0 179 76.5 276.5t218.5 97.5q130 0 205 -93.5t75 -252.5q0 -170 -75.5 -265t-214.5 -95q-132 0 -208.5 89t-76.5 243zM899 330q0 -126 50 -197.5t145 -71.5q94 0 147 74t53 219q0 127 -49 201t-141 74q-100 0 -152.5 -78.5t-52.5 -220.5z" />
<glyph unicode="&#x26;" horiz-adv-x="1349" d="M117 369q0 83 31.5 156t76.5 118q68 68 189 127q-84 111 -111 159q-49 88 -49 167q0 128 92 211.5t234 83.5q136 0 218.5 -74t82.5 -193q0 -34 -7 -66t-16.5 -57.5t-28 -50.5t-33.5 -43t-41 -38.5t-42.5 -32.5t-46 -28.5t-43 -23.5t-42.5 -21t-36 -18l377 -454 q13 17 29.5 44.5t43 84t44 139.5t18.5 174h88q0 -157 -52 -300t-112 -212q78 -92 133.5 -118.5t132.5 -28.5v-74q-119 0 -188 37t-139 119q-178 -181 -406 -181q-171 0 -284 113t-113 281zM209 375q0 -134 92 -223t229 -89q182 0 332 156l-401 490q-252 -120 -252 -334z M346 1098q0 -59 32 -120t120 -173q156 71 223 138.5t67 170.5q0 90 -58.5 145.5t-151.5 55.5q-99 0 -165.5 -61.5t-66.5 -155.5z" />
<glyph unicode="'" horiz-adv-x="327" d="M117 1366h94l-6 -457h-82z" />
<glyph unicode="(" horiz-adv-x="724" d="M158 610q0 93 10 181t38 190t72 190.5t118.5 175t172.5 150.5l49 -61q-92 -74 -159 -158.5t-105 -163.5t-60.5 -172.5t-29 -170.5t-6.5 -173q0 -120 14.5 -219.5t51 -205.5t108.5 -205.5t178 -190.5l-51 -60q-101 72 -175 162t-116.5 176.5t-68 188.5t-33.5 185.5 t-8 180.5z" />
<glyph unicode=")" horiz-adv-x="724" d="M106 1436l50 61q98 -64 172.5 -150.5t118.5 -175t72 -190.5t38 -190t10 -181q0 -97 -8 -180.5t-33.5 -185.5t-68 -188.5t-116.5 -176.5t-175 -162l-51 60q106 91 178 190.5t108.5 205.5t51 205.5t14.5 219.5q0 79 -5 144.5t-18 142t-39 145t-64.5 139t-98 138 t-136.5 129.5z" />
<glyph unicode="*" horiz-adv-x="917" d="M117 1128l26 82l271 -108v264h90v-264l268 108l29 -82l-281 -86l180 -241l-75 -51l-166 256l-166 -256l-76 51l180 241z" />
<glyph unicode="+" d="M158 475v78h397v397h78v-397h397v-78h-397v-397h-78v397h-397z" />
<glyph unicode="," horiz-adv-x="446" d="M86 -205q29 29 63.5 113.5t34.5 193.5v23h115v-14q0 -212 -149 -361z" />
<glyph unicode="-" horiz-adv-x="995" d="M178 475v78h639v-78h-639z" />
<glyph unicode="." horiz-adv-x="409" d="M133 55q0 29 21.5 50.5t50.5 21.5t50 -21.5t21 -50.5t-21 -50t-50 -21t-50.5 21t-21.5 50z" />
<glyph unicode="/" horiz-adv-x="856" d="M80 -248l618 1645l78 -31l-618 -1645z" />
<glyph unicode="0" d="M109 692q0 327 124.5 513t352.5 186q239 0 366 -186t127 -523q0 -334 -126.5 -519.5t-360.5 -185.5q-237 0 -360 186t-123 529zM205 672q0 -294 98.5 -455.5t288.5 -161.5q194 0 292.5 162.5t98.5 464.5t-98 466.5t-291 164.5q-199 0 -294 -161t-95 -480z" />
<glyph unicode="1" d="M209 1094l407 272h78v-1366h-86v1262l-348 -236z" />
<glyph unicode="2" d="M188 0v82q130 127 230 227q132 132 212 220.5t140 173t84.5 154t24.5 142.5q0 149 -81 228.5t-229 79.5q-50 0 -100.5 -12t-86.5 -28.5t-67 -35.5t-45 -30t-18 -15l-53 57q4 6 22 21.5t54 37.5t79.5 41.5t105 33.5t124.5 14q183 0 287 -101t104 -278q0 -51 -13 -103.5 t-32 -97.5t-54.5 -98.5t-65 -92.5t-79.5 -93.5t-83 -88.5t-89 -90l-266 -266h690v-82h-795z" />
<glyph unicode="3" d="M152 117l53 59l7 -7q8 -7 21.5 -17t32.5 -22t45 -24t56.5 -22.5t70 -16.5t80.5 -6q163 0 263 79.5t100 219.5q0 121 -84 205q-54 54 -132.5 75.5t-228.5 21.5h-30v81h36q124 0 205.5 19.5t145.5 83.5q71 71 71 186q0 123 -84.5 199t-228.5 76q-179 0 -317 -124l-3 -3 l-55 57q3 6 20 21.5t51.5 38.5t77 43.5t104 35.5t124.5 15q187 0 294 -99t107 -260q0 -125 -75 -220t-207 -112q137 -10 219 -102.5t82 -226.5q0 -181 -125 -287.5t-309 -106.5q-247 0 -387 140z" />
<glyph unicode="4" d="M119 350v78l653 938h90v-938h193v-78h-193v-350h-86v350h-657zM215 428h561v799z" />
<glyph unicode="5" d="M178 106l47 64q4 -4 17 -14t43 -27t64.5 -31.5t84 -25.5t98.5 -11q170 0 269.5 95.5t99.5 259.5q0 96 -38 174.5t-121.5 129t-200.5 50.5q-146 0 -254 -72l-56 35v633h707v-80h-619v-487q10 7 32.5 18.5t80 26t119.5 14.5q211 0 326.5 -120.5t115.5 -315.5 q0 -202 -126 -323.5t-320 -121.5q-69 0 -131.5 12.5t-102 29.5t-72 37.5t-45.5 32t-18 17.5z" />
<glyph unicode="6" d="M160 637q0 76 5.5 145.5t20.5 147t38.5 142.5t62.5 125t90 102t123 67t159 25q63 0 121.5 -12.5t97 -30t69.5 -37.5t45 -33.5t18 -20.5l-54 -59q-1 1 -12 10t-19.5 15.5t-25.5 18t-32.5 20t-38.5 18.5t-45.5 16t-51 10.5t-57.5 4.5q-75 0 -136.5 -22t-105.5 -59.5 t-78 -91.5t-54.5 -113t-33 -129.5t-17 -136.5t-3.5 -138q0 -30 1 -40.5t1 -19.5q15 98 73.5 169.5t142.5 106.5t183 35q191 0 296.5 -120.5t105.5 -311.5q0 -197 -119 -330t-309 -133q-110 0 -194.5 43t-133.5 109t-80.5 157.5t-42 175t-10.5 175.5zM291 410q0 -149 94 -254 t242 -105q104 0 182 56t115 141.5t37 185.5q0 159 -81.5 262t-236.5 103q-104 0 -185.5 -54.5t-124 -142.5t-42.5 -192z" />
<glyph unicode="7" d="M166 1282v84h874v-72l-571 -1294h-107l584 1282h-780z" />
<glyph unicode="8" d="M143 346q0 101 40 183.5t115 131t171 46.5q-135 23 -212 111.5t-77 215.5q0 158 115 257.5t295 99.5q186 0 301 -95.5t115 -251.5q0 -128 -72.5 -219.5t-204.5 -117.5q152 -12 233.5 -106.5t81.5 -248.5q0 -169 -121 -272t-319 -103q-212 0 -336.5 99.5t-124.5 269.5z M240 360q0 -150 97.5 -231.5t268.5 -81.5q157 0 249.5 81.5t92.5 229.5q0 147 -97 230.5t-257 83.5q-156 0 -255 -85.5t-99 -226.5zM274 1036q0 -130 93 -212.5t229 -82.5q137 0 226 81.5t89 211.5q0 132 -89 209.5t-226 77.5q-142 0 -232 -77t-90 -208z" />
<glyph unicode="9" d="M139 928q0 197 119 330t309 133q110 0 194.5 -43t133.5 -109t80.5 -157.5t42 -175t10.5 -175.5q0 -76 -5.5 -145.5t-20.5 -147t-39 -142.5t-63 -125t-90 -102t-123 -67t-159 -25q-63 0 -121.5 12.5t-96.5 30t-69 37.5t-45 33.5t-18 20.5l53 59q1 0 12.5 -9.5t19.5 -16 t25.5 -18t33 -20t38.5 -18.5t45.5 -16t51 -10.5t57.5 -4.5q103 0 182 42.5t125 109.5t74.5 160.5t38 184.5t8.5 194q0 30 -1 40t-1 19q-15 -98 -73.5 -169.5t-142.5 -106.5t-183 -35q-191 0 -296.5 120.5t-105.5 311.5zM227 934q0 -159 81.5 -262t236.5 -103 q104 0 185.5 54.5t124 142.5t42.5 192q0 149 -94 254t-242 105q-104 0 -182 -56t-115 -141.5t-37 -185.5z" />
<glyph unicode=":" horiz-adv-x="409" d="M133 55q0 29 21.5 50.5t50.5 21.5t50 -21.5t21 -50.5t-21 -50t-50 -21t-50.5 21t-21.5 50zM133 934q0 29 21.5 50.5t50.5 21.5t50 -21.5t21 -50.5t-21 -50.5t-50 -21.5t-50.5 21.5t-21.5 50.5z" />
<glyph unicode=";" horiz-adv-x="446" d="M86 -205q29 29 63.5 113.5t34.5 193.5v23h115v-14q0 -212 -149 -361zM174 934q0 29 21.5 50.5t50.5 21.5t50 -21.5t21 -50.5t-21 -50.5t-50 -21.5t-50.5 21.5t-21.5 50.5z" />
<glyph unicode="&#x3c;" horiz-adv-x="1196" d="M127 487v56l907 446l35 -67l-844 -410l844 -401l-33 -70z" />
<glyph unicode="=" d="M123 358v78h942v-78h-942zM123 592v78h942v-78h-942z" />
<glyph unicode="&#x3e;" horiz-adv-x="1196" d="M127 111l844 401l-844 410l35 67l907 -446v-56l-909 -446z" />
<glyph unicode="?" horiz-adv-x="980" d="M117 1278q5 5 20 15.5t48 28t72 32.5t96 26t116 11q164 0 262 -102t98 -271q0 -55 -9.5 -99.5t-30 -77.5t-34 -49.5t-38.5 -41.5q-48 -48 -129.5 -99t-106.5 -76q-32 -32 -38.5 -62.5t-6.5 -135.5v-68h-78q-4 90 -4 121q0 79 7 114t36 64q26 25 114.5 84.5t119.5 91.5 q58 58 79 110t21 124q0 127 -82 208t-209 81q-138 0 -278 -93zM328 53q0 30 20 51t49 21t49.5 -21.5t20.5 -50.5t-20.5 -49t-49.5 -20t-49 20t-20 49z" />
<glyph unicode="@" horiz-adv-x="1576" d="M102 629q0 213 98.5 385t272.5 269t389 97q177 0 317 -68t218 -189t78 -273q0 -221 -145 -355.5t-380 -134.5q-16 0 -32 2l20 117q-5 -5 -13.5 -13t-35.5 -28.5t-55.5 -36t-70 -28.5t-81.5 -13q-95 0 -154 66.5t-59 175.5q0 186 127.5 313t314.5 127q116 0 199 -36 l-109 -576q176 12 283 119q49 49 82 132t33 167q0 202 -152 330.5t-387 128.5q-143 0 -268 -51.5t-213.5 -141.5t-139.5 -217t-51 -272q0 -256 164 -414t416 -158q240 0 424 123l45 -63q-189 -142 -479 -142q-189 0 -338.5 83t-233.5 233t-84 342zM555 610 q0 -73 43.5 -122.5t110.5 -49.5q18 0 37 3.5t35 8.5t32.5 13t29.5 16t26 17.5t22.5 17.5t18.5 16.5t14 13.5l10 10l4 5l74 397q-12 2 -27.5 7t-21.5 6q-28 4 -52 4q-146 0 -251 -107.5t-105 -255.5z" />
<glyph unicode="A" horiz-adv-x="1161" d="M27 0l497 1366h109l502 -1366h-99l-151 420h-619l-151 -420h-88zM297 502h559l-281 772z" />
<glyph unicode="B" horiz-adv-x="1112" d="M180 0v1366h297q142 0 225 -18.5t148 -83.5q98 -95 98 -256q0 -112 -61.5 -199t-179.5 -109q156 -22 222 -104.5t66 -214.5q0 -156 -102 -258q-36 -36 -78.5 -59.5t-81.5 -36t-103.5 -19t-111 -7.5t-137.5 -1h-201zM268 76h154q165 0 253 18.5t159 89.5q35 35 53 90 t18 103q0 112 -78 190q-25 25 -61.5 42t-69 25.5t-84 13t-81 5t-86.5 0.5h-17h-160v-577zM268 729h174q239 0 346 107q70 70 70 180q0 114 -72 186q-55 55 -125 71.5t-204 16.5h-189v-561z" />
<glyph unicode="C" horiz-adv-x="1222" d="M117 672q0 167 52 305t141.5 227.5t206.5 138t249 48.5q82 0 154.5 -13.5t120 -34.5t71 -34.5t37.5 -24.5l-43 -72q-146 91 -330 91q-115 0 -218 -42.5t-180.5 -120t-123 -194.5t-45.5 -258q0 -285 150 -455t403 -170q31 0 61 2.5t55.5 7t51 10.5t45 12.5t39.5 14.5 t33.5 14.5t28 14t21.5 12t16 9.5l9 6l47 -68q-11 -11 -39.5 -28t-79.5 -39.5t-131 -38t-169 -15.5q-132 0 -247 47t-201 134t-135.5 219.5t-49.5 294.5z" />
<glyph unicode="D" horiz-adv-x="1363" d="M180 0v1366h232q248 0 389.5 -30.5t242.5 -131.5q98 -98 150.5 -230t52.5 -286q0 -324 -198 -522q-99 -99 -223.5 -132.5t-327.5 -33.5h-318zM268 76h197q60 0 85.5 0.5t78 3t80.5 7.5t71.5 15.5t74 25.5t66 38.5t66.5 54.5q81 79 122.5 203.5t41.5 267.5q0 283 -170 453 q-91 91 -208 118t-357 27h-148v-1214z" />
<glyph unicode="E" horiz-adv-x="999" d="M180 0v1366h692v-80h-604v-528h568v-76h-568v-600h621v-82h-709z" />
<glyph unicode="F" horiz-adv-x="937" d="M180 0v1366h672v-80h-584v-528h545v-76h-545v-682h-88z" />
<glyph unicode="G" horiz-adv-x="1325" d="M117 672q0 167 52 305t141.5 227.5t206.5 138t249 48.5q82 0 155 -13t119.5 -32t72.5 -33t36 -23l-43 -71q-20 12 -51 27t-113 36t-166 21q-115 0 -218 -42.5t-180.5 -120t-123 -194.5t-45.5 -258q0 -288 150 -456.5t405 -168.5q41 0 78.5 3t66.5 7.5t55.5 11t44.5 13 t34.5 13.5t25.5 12t17 9l8 5v443h-332v75h420v-565q-12 -11 -39 -26t-78 -36.5t-134 -36t-179 -14.5q-133 0 -248 47t-201.5 133.5t-136 219.5t-49.5 295z" />
<glyph unicode="H" horiz-adv-x="1277" d="M180 0v1366h88v-606h742v606h88v-1366h-88v680h-742v-680h-88z" />
<glyph unicode="I" horiz-adv-x="448" d="M180 0v1366h88v-1366h-88z" />
<glyph unicode="J" horiz-adv-x="704" d="M20 49l39 70l13 -9q14 -8 30 -16t38.5 -17t51.5 -14.5t58 -5.5q92 0 141 49q27 27 42 68t17.5 72t2.5 78v1042h88v-971v-22q0 -58 -1.5 -89.5t-8 -79t-24.5 -83.5t-48 -66q-78 -78 -193 -78q-138 0 -246 72z" />
<glyph unicode="K" horiz-adv-x="1064" d="M180 0v1366h88v-649l631 649h109l-652 -672l684 -694h-122l-650 662v-662h-88z" />
<glyph unicode="L" horiz-adv-x="944" d="M180 0v1366h88v-1284h604v-82h-692z" />
<glyph unicode="M" horiz-adv-x="1769" d="M164 0l160 1366h104l459 -1227l448 1227h109l162 -1366h-101l-137 1233l-453 -1233h-73l-455 1233l-135 -1233h-88z" />
<glyph unicode="N" horiz-adv-x="1269" d="M180 0v1366h113l715 -1264l-2 1264h84v-1366h-123l-705 1245l2 -1245h-84z" />
<glyph unicode="O" horiz-adv-x="1413" d="M117 666q0 209 76 374t213.5 258t312.5 93q123 0 230 -52.5t183.5 -144.5t120 -223.5t43.5 -284.5q0 -204 -74.5 -365.5t-212 -252.5t-313.5 -91q-162 0 -294.5 88.5t-208.5 246.5t-76 354zM213 692q0 -136 37.5 -254t103 -201t157 -130.5t196.5 -47.5q221 0 357 169 t136 468q0 273 -140.5 443t-357.5 170q-222 0 -355.5 -169t-133.5 -448z" />
<glyph unicode="P" horiz-adv-x="1077" d="M180 0v1366h291q142 0 232 -18.5t155 -83.5q111 -111 111 -285q0 -178 -117 -295q-102 -102 -336 -102h-248v-582h-88zM268 657h238q198 0 278 80q95 95 95 248q0 138 -91 229q-28 28 -59.5 44t-80 22.5t-84.5 8t-113 1.5h-183v-633z" />
<glyph unicode="Q" horiz-adv-x="1413" d="M117 666q0 209 76 374t213.5 258t312.5 93q123 0 230 -52.5t183.5 -144.5t120 -223.5t43.5 -284.5q0 -307 -159 -501t-410 -208q23 -29 46 -52.5t62 -49t84.5 -42.5t112 -28.5t144.5 -11.5q27 0 51.5 2t38.5 4t16 2l8 -73q-75 -15 -155 -15q-175 0 -302.5 66t-214.5 205 q-97 12 -186.5 64.5t-160 137.5t-112.5 210t-42 270zM213 692q0 -136 37.5 -254t103 -201t157 -130.5t196.5 -47.5q221 0 357 169t136 468q0 273 -140.5 443t-357.5 170q-222 0 -355.5 -169t-133.5 -448z" />
<glyph unicode="R" horiz-adv-x="1099" d="M180 0v1366h271h74.5t67 -2.5t74 -8t60.5 -15.5t64 -27t51 -41q57 -57 82.5 -122.5t25.5 -150.5q0 -148 -88 -239q-91 -91 -217 -105q39 -3 71 -22t55 -51.5t36.5 -57.5t29.5 -61l1.5 -4.5t1.5 -3.5l2 -4l200 -451h-92l-151 344q-71 167 -117 213q-40 40 -90.5 55 t-153.5 15h-170v-627h-88zM268 702h99q67 0 98.5 0.5t86.5 5.5t88 15.5t72.5 31t69.5 50.5q78 78 78 203q0 120 -84 204q-52 52 -115.5 65t-185.5 13h-207v-588z" />
<glyph unicode="S" horiz-adv-x="1030" d="M104 119l52 67l10 -8l22 -16t30.5 -20.5t39 -23t46 -22t53 -19.5t58 -13t62.5 -5q160 0 246 82.5t86 220.5q0 101 -78 179q-44 44 -117 83.5t-138 64t-138 64t-117 83.5q-82 82 -82 215q0 149 106 244.5t279 95.5q224 -1 361 -144l-56 -55l-10 10q-10 10 -21.5 19.5 t-30 23t-42 24.5t-52 21.5t-65.5 16.5t-76 6q-135 0 -222 -74.5t-87 -185.5q0 -92 66 -158q42 -42 114 -79t138 -61t140.5 -63t119.5 -84q100 -100 100 -239q0 -174 -107.5 -283t-310.5 -109q-217 0 -379 142z" />
<glyph unicode="T" horiz-adv-x="1077" d="M70 1286v80h938v-80h-426v-1286h-88v1286h-424z" />
<glyph unicode="U" horiz-adv-x="1239" d="M160 483v26v47v71v739h88v-881q0 -57 2 -92.5t10.5 -81t27.5 -82t50 -67.5q105 -105 289 -105q78 0 149 25.5t115 69.5q25 25 42.5 50t28.5 60.5t17 59.5t8.5 78t3 82.5t0.5 103.5v780h88v-770v-52.5v-56t-1 -51.5t-3.5 -55.5t-6.5 -50t-10 -52.5t-15 -46.5t-20.5 -48.5 t-27 -41.5t-34.5 -41.5q-123 -123 -340 -123q-218 0 -345 127q-21 21 -38 43t-29 50.5t-20.5 47.5t-14 57t-8.5 54.5t-4.5 64t-1.5 62.5z" />
<glyph unicode="V" horiz-adv-x="1191" d="M53 1366h101l442 -1305l453 1305h90l-484 -1366h-127z" />
<glyph unicode="W" horiz-adv-x="1802" d="M84 1366h102l316 -1315l327 1315h156l326 -1315l317 1315h90l-342 -1366h-145l-326 1315l-332 -1315h-145z" />
<glyph unicode="X" horiz-adv-x="1112" d="M59 0l435 713l-406 653h111l352 -582l346 582h102l-399 -655l453 -711h-109l-395 639l-391 -639h-99z" />
<glyph unicode="Y" horiz-adv-x="1079" d="M57 1366h103l385 -735l379 735h98l-438 -827v-539h-88v539z" />
<glyph unicode="Z" horiz-adv-x="1101" d="M98 0v72l787 1214h-744v80h844v-72l-780 -1212h796v-82h-903z" />
<glyph unicode="[" horiz-adv-x="628" d="M180 -248v1614h369v-78h-281v-1458h281v-78h-369z" />
<glyph unicode="\" horiz-adv-x="856" d="M80 1366l78 31l618 -1645l-78 -31z" />
<glyph unicode="]" horiz-adv-x="628" d="M80 -170h280v1458h-280v78h369v-1614h-369v78z" />
<glyph unicode="^" d="M164 524l395 842h68l397 -842h-102l-332 719l-330 -719h-96z" />
<glyph unicode="_" horiz-adv-x="935" d="M-4 -170h944v-78h-944v78z" />
<glyph unicode="`" horiz-adv-x="757" d="M150 1274l43 98l415 -192l-30 -64z" />
<glyph unicode="a" horiz-adv-x="929" d="M84 266q0 64 23.5 115.5t57.5 84t88.5 56t101 35.5t110 18.5t100.5 7.5t88 1h60v53q0 5 0.5 31t0 34.5t-2 31t-5 34t-8.5 29t-14.5 31.5t-21.5 26q-70 70 -205 70q-70 0 -137.5 -21t-97 -37.5t-36.5 -23.5l-43 61q3 4 17.5 13.5t44.5 24.5t66.5 28t89.5 22.5t108 9.5 q160 0 250 -90q45 -45 61.5 -102.5t16.5 -169.5v-639h-84v74q-1 -1 -20.5 -11.5t-35.5 -19t-47 -21.5t-61 -21t-70.5 -14.5t-81.5 -6.5q-140 0 -226.5 78t-86.5 208zM172 264q0 -85 60.5 -146t185.5 -61q28 0 56.5 3.5t53 9.5t49 14.5t43.5 16t36.5 16t28.5 14.5t19 11l9 5 v363h-72q-84 0 -151.5 -6.5t-128 -23.5t-101.5 -44t-64.5 -70.5t-23.5 -101.5z" />
<glyph unicode="b" horiz-adv-x="1036" d="M147 43v1430h84v-574q125 100 283 100q200 0 315 -135t115 -362q0 -230 -136.5 -375t-352.5 -145q-39 0 -79.5 4t-70 10t-60 14.5t-47.5 14t-34 11.5zM231 98q1 0 12.5 -4t23.5 -8t33.5 -9t44 -9t53.5 -6.5t63 -2.5q180 0 287.5 120.5t107.5 318.5q0 188 -92.5 306 t-251.5 118q-158 0 -278 -103q-1 -1 -2 -1l-1 -1v-719z" />
<glyph unicode="c" horiz-adv-x="927" d="M92 465q0 237 131 385.5t346 148.5q76 0 145.5 -22t97 -39.5t38.5 -28.5l-43 -63q-1 0 -8 5t-12.5 8.5t-17 9.5t-23 11t-26.5 11t-32 10.5t-36.5 8.5t-42 6t-46.5 2q-173 0 -278 -121.5t-105 -313.5q0 -190 103 -303.5t264 -113.5q145 0 276 75l39 -67q-16 -13 -52 -31.5 t-112.5 -39.5t-154.5 -21q-199 0 -325 129t-126 354z" />
<glyph unicode="d" horiz-adv-x="1036" d="M92 471q0 233 130 380.5t337 147.5q28 0 55 -3t50.5 -9t42.5 -12t37 -13.5t28.5 -12.5t21.5 -11l11 -6v541h84v-1473h-84v82l-2 -2q-117 -88 -260 -97q-15 -1 -29 -1q-188 0 -305 134.5t-117 354.5zM180 467q0 -181 93.5 -294.5t248.5 -113.5q31 0 60.5 4t53 10.5 t46.5 15.5t39 17.5t32.5 19t24.5 17t17 14t10 7.5v686q-1 0 -9 5t-15.5 10t-22 12t-28.5 13t-34 12.5t-40 11t-45 7.5t-50 3q-172 0 -276.5 -126t-104.5 -331z" />
<glyph unicode="e" horiz-adv-x="993" d="M92 481q0 239 118.5 378.5t319.5 139.5q162 0 266.5 -120.5t104.5 -333.5q0 -16 -4 -62h-717q0 -191 95.5 -304t265.5 -113q76 0 148.5 21t106.5 42l35 21l41 -70q-4 -4 -20 -14t-48.5 -25t-70.5 -27.5t-91.5 -22t-106.5 -9.5q-205 0 -324 136.5t-119 362.5zM184 561h631 q0 68 -17 131t-50.5 116.5t-89.5 85.5t-128 32q-138 0 -237.5 -100t-108.5 -265z" />
<glyph unicode="f" horiz-adv-x="688" d="M51 905v72h178v203q0 161 84 245q72 72 197 72q66 0 115.5 -17t68.5 -34l-35 -66q-68 39 -145 39q-90 0 -139 -49q-29 -29 -44 -73t-16.5 -69.5t-1.5 -66.5v-184h318v-72h-318v-905h-84v905h-178z" />
<glyph unicode="g" horiz-adv-x="1036" d="M92 479q0 227 134.5 373.5t340.5 146.5q180 0 322 -79v-940q0 -140 -19 -214t-69 -124q-60 -60 -132.5 -81.5t-172.5 -21.5q-59 0 -115 11t-93.5 25.5t-70 32.5t-46.5 28.5t-19 15.5l43 63q1 0 12 -7.5t24.5 -15.5t34 -19t45 -20t53 -17.5t62.5 -13.5t68 -5q163 0 247 84 q41 41 51.5 101.5t10.5 207.5v88l-11 -7q-10 -7 -19.5 -13t-27.5 -16t-35.5 -18t-42 -17t-49 -15t-54.5 -10t-60 -4q-181 0 -296.5 132t-115.5 349zM178 479q0 -179 89.5 -291t240.5 -112q44 0 89 9.5t79.5 25t60 29t45.5 26.5t21 14v690l-9 4q-8 4 -15 7t-21.5 8t-28 9 t-33.5 9t-40 8t-45 5t-50 2q-173 0 -278 -123t-105 -320z" />
<glyph unicode="h" horiz-adv-x="1003" d="M147 0v1473h84v-580q18 14 54 34t117 46t157 26q150 0 227 -77q52 -52 68 -115t16 -182v-625h-84v586q0 81 -2 119.5t-16 84t-43 74.5q-58 58 -174 58q-136 0 -320 -109v-813h-84z" />
<glyph unicode="i" horiz-adv-x="378" d="M127 1323q0 26 18.5 43.5t44.5 17.5t44 -17.5t18 -43.5t-18 -44.5t-44 -18.5t-44.5 18.5t-18.5 44.5zM147 0v977h84v-977h-84z" />
<glyph unicode="j" horiz-adv-x="376" d="M-156 -438l21 69q48 -18 96 -18q52 0 80.5 11.5t56.5 39.5q47 47 47 191v1122h84v-1108q0 -100 -16 -158.5t-57 -99.5q-31 -31 -79 -51.5t-104 -20.5q-60 0 -129 23zM125 1321q0 26 18.5 43.5t44.5 17.5t44 -17.5t18 -43.5t-18 -43.5t-44 -17.5t-44.5 17.5t-18.5 43.5z " />
<glyph unicode="k" horiz-adv-x="903" d="M147 0v1473h84v-938l467 442h115l-485 -449l540 -528h-118l-519 516v-516h-84z" />
<glyph unicode="l" horiz-adv-x="378" d="M147 0v1473h84v-1473h-84z" />
<glyph unicode="m" horiz-adv-x="1595" d="M147 0v977h84v-84q15 10 35 21t66.5 33.5t105 37t115.5 14.5q31 0 60 -4.5t49.5 -10t40.5 -16.5t31.5 -18.5t25 -20.5t18.5 -18.5t14 -17.5l9 -12q1 1 13 8t19.5 12t24.5 14.5t31 16t35 16t40 16t44 13.5t48.5 11.5t50.5 7.5t54 3q136 0 211 -75q60 -60 75 -136.5 t15 -222.5v-565h-84v616q0 89 -13.5 150.5t-51.5 99.5q-54 54 -160 54q-140 0 -324 -103q19 -48 19 -229v-588h-84v555q0 152 -10 214.5t-45 96.5q-60 56 -160 56q-147 0 -318 -109v-813h-84z" />
<glyph unicode="n" horiz-adv-x="1003" d="M147 0v977h84v-84q18 14 54 34t117 46t157 26q150 0 227 -77q52 -52 68 -115t16 -182v-625h-84v586q0 81 -2 119.5t-16 84t-43 74.5q-58 58 -174 58q-136 0 -320 -109v-813h-84z" />
<glyph unicode="o" horiz-adv-x="1044" d="M92 489q0 235 116 372.5t320 137.5q197 0 310.5 -138.5t113.5 -385.5q0 -229 -116.5 -363.5t-315.5 -134.5q-196 0 -312 137.5t-116 374.5zM180 492q0 -196 97 -317.5t245 -121.5q161 0 251.5 116t90.5 314q0 196 -97 319.5t-245 123.5q-157 0 -249.5 -119t-92.5 -315z " />
<glyph unicode="p" horiz-adv-x="1036" d="M147 -434v1411h84v-78q12 10 29.5 21.5t55.5 32t92.5 33.5t113.5 13q188 0 305 -134.5t117 -354.5q0 -234 -131.5 -381t-343.5 -147q-59 0 -115.5 15t-81 27.5t-41.5 24.5v-483h-84zM231 131l9 -5q8 -5 15.5 -9.5t22 -11.5t28.5 -13t34 -12.5t40 -10.5t45 -7t50 -3 q172 0 276.5 126t104.5 331q0 181 -93.5 294.5t-248.5 113.5q-31 0 -60.5 -4t-53 -10.5t-46.5 -15.5t-39 -17.5t-32.5 -19t-24.5 -17t-17 -14t-10 -7.5v-688z" />
<glyph unicode="q" horiz-adv-x="1036" d="M92 479q0 230 137 375t353 145q39 0 79 -4t70 -10t60 -14.5t47 -14t34 -12.5l17 -6v-1372h-84v516q-125 -100 -283 -100q-200 0 -315 135t-115 362zM180 483q0 -188 92.5 -306t251.5 -118q158 0 278 103l2 2h1v719q-1 0 -12.5 4t-23.5 8t-33.5 9t-44 9t-53.5 6.5t-63 2.5 q-180 0 -287.5 -120.5t-107.5 -318.5z" />
<glyph unicode="r" horiz-adv-x="679" d="M147 0v977h84v-150q39 56 73 86q101 91 235 91q55 0 100 -15l-21 -74q-56 7 -83 7q-43 0 -82 -10t-68.5 -27.5t-53.5 -36.5t-42 -41t-29.5 -38t-19.5 -31l-9 -15v-723h-84z" />
<glyph unicode="s" horiz-adv-x="831" d="M70 68l39 67q127 -82 264 -82q123 0 193.5 52.5t70.5 146.5q0 72 -55 127q-31 31 -88.5 57t-112 42.5t-115.5 45.5t-96 64q-64 64 -64 166q0 112 89 178.5t221 66.5q75 0 144.5 -20t93.5 -33.5t38 -23.5l-39 -66q-17 12 -41.5 24.5t-79.5 29t-108 16.5q-97 0 -164 -45.5 t-67 -124.5q0 -66 45 -111q30 -30 88 -56.5t112.5 -43t116 -46.5t98.5 -67q72 -72 72 -172q0 -134 -92.5 -208.5t-251.5 -74.5q-52 0 -102.5 8.5t-86 21t-64 26t-42 23t-16.5 12.5z" />
<glyph unicode="t" horiz-adv-x="724" d="M49 905v72h170v278h84v-278h322v-72h-322v-596v-19q0 -38 0.5 -56t3 -48.5t8.5 -45t17.5 -33.5t29 -28t43.5 -15.5t60 -6.5q18 0 36 2t31 4.5t27 7t21.5 7t17 6.5t10.5 4l27 -68q-1 -1 -9.5 -5t-15.5 -6.5t-19 -7.5t-25.5 -8t-30 -6.5t-36.5 -5t-42 -1.5q-124 0 -187 63 q-12 12 -21 26.5t-14.5 35.5t-9 34.5t-5 42t-2 39t0 44.5t0.5 40v600h-170z" />
<glyph unicode="u" horiz-adv-x="1003" d="M133 385v592h84v-600v-17q0 -45 1 -69t6 -59.5t18 -61.5t34 -47q68 -68 177 -68q34 0 69.5 5.5t65.5 14.5t56.5 19.5t49.5 22.5t37.5 20t27.5 17l13 8v815h84v-977h-84v84q-1 -1 -16 -10.5t-28.5 -17t-37 -19.5t-49 -21t-56 -18t-67.5 -13.5t-76 -4.5q-137 0 -225 88 q-56 56 -70 124.5t-14 192.5z" />
<glyph unicode="v" horiz-adv-x="987" d="M45 977h96l346 -895l347 895h92l-387 -977h-109z" />
<glyph unicode="w" horiz-adv-x="1495" d="M74 977h90l248 -899l268 899h133l258 -899l254 899h86l-289 -977h-114l-267 924l-274 -924h-117z" />
<glyph unicode="x" horiz-adv-x="935" d="M49 0l359 504l-332 473h108l279 -414l285 414h100l-334 -473l352 -504h-106l-305 442l-305 -442h-101z" />
<glyph unicode="y" horiz-adv-x="958" d="M-37 -432l25 74q1 0 11.5 -3.5t20.5 -6.5t25.5 -6t35.5 -5t42 -2q110 0 178 68q19 19 36 43t35.5 62.5t25.5 53.5t28.5 68.5t22.5 56.5l-402 1006h96l353 -889l315 889h92l-385 -1063q-75 -204 -145 -274q-101 -101 -248 -101q-40 0 -79.5 7t-57 12.5t-25.5 9.5z" />
<glyph unicode="z" horiz-adv-x="925" d="M90 0v70l598 835h-565v72h663v-68l-589 -833h612v-76h-719z" />
<glyph unicode="{" horiz-adv-x="649" d="M109 543v78q47 0 71 24q12 12 16.5 38.5t4.5 94.5v293q0 117 14 164t43 76q26 26 61 38.5t64.5 14.5t95.5 2h90v-78h-71q-92 0 -120.5 -5t-49.5 -26q-20 -20 -28.5 -52.5t-8.5 -106.5v-314q0 -84 -4.5 -120t-22.5 -54q-15 -15 -41 -28q24 -12 41 -29q27 -27 27 -131v-402 q0 -74 8.5 -106.5t28.5 -52.5q21 -21 49.5 -26t120.5 -5h71v-78h-90q-66 0 -95.5 2t-64.5 14.5t-61 38.5q-19 19 -29.5 38t-19 70t-8.5 132v338v16.5v21t-0.5 21.5t-2 23.5t-3.5 20.5t-6 19t-9 13q-23 23 -71 23z" />
<glyph unicode="|" horiz-adv-x="485" d="M197 -248v1614h92v-1614h-92z" />
<glyph unicode="}" horiz-adv-x="649" d="M80 -170h72q92 0 120.5 5t49.5 26q20 20 28 52.5t8 106.5v402q0 104 27 131q17 17 41 29q-26 13 -41 28q-18 18 -22.5 54t-4.5 120v314q0 74 -8 106.5t-28 52.5q-21 21 -49.5 26t-120.5 5h-72v78h90q94 0 138.5 -8.5t82.5 -46.5q19 -19 29.5 -38t19.5 -70t9 -132v-293 q0 -69 4 -95t16 -38q24 -24 72 -24v-78q-49 0 -72 -23q-6 -6 -10 -17t-6 -21.5t-3 -26.5t-1 -25.5v-25.5v-19v-338q0 -81 -9 -132t-19.5 -70t-29.5 -38q-38 -38 -82.5 -46.5t-138.5 -8.5h-90v78z" />
<glyph unicode="~" d="M160 500q49 68 103.5 95.5t127.5 27.5q54 0 113 -18.5t102.5 -40t98.5 -40t102 -18.5q34 0 64 13.5t46.5 28.5t38.5 40l72 -58q-97 -122 -221 -122q-66 0 -141.5 29t-147 58t-127.5 29q-19 0 -35.5 -2t-31 -8.5t-24 -10t-22 -14t-16.5 -14t-16 -16t-13 -13.5z" />
<glyph unicode="&#xa2;" d="M225 483q0 219 112.5 364t303.5 167v164h78v-160q73 -2 137.5 -23.5t91.5 -39t35 -27.5l-43 -64l-8 6q-9 5 -15 8.5t-19.5 11t-25 12.5t-30 11.5t-36 10.5t-40.5 7.5t-47 4.5v-850q141 10 237 74l39 -68q-25 -22 -102 -53.5t-174 -36.5v-195h-78v195q-188 12 -302 139 t-114 342zM313 502q0 -179 91 -290.5t237 -125.5v846q-152 -20 -240 -137t-88 -293z" />
<glyph unicode="&#xa3;" d="M174 0v74q38 15 62 27.5t52.5 38.5t44.5 59.5t27 88t11 126.5q0 42 -11 202h-182v80h174q-18 120 -18 222q0 219 114 345t308 126q88 0 163.5 -24t108 -46t45.5 -39l-49 -55l-8 7q-9 7 -15.5 11.5t-21 13.5t-28.5 15.5t-35 14.5t-43 12.5t-50.5 8t-58.5 3.5 q-159 0 -248.5 -101.5t-89.5 -291.5q0 -50 3 -91.5t7.5 -82.5t5.5 -48h400v-80h-391q0 -5 5 -58.5t5 -86.5q0 -297 -150 -393h748v-78h-885z" />
<glyph unicode="&#xa5;" d="M127 1366h104l357 -653l373 653h100l-399 -674h270v-78h-299v-108h299v-78h-299v-428h-86v428h-295v78h295v108h-295v78h264z" />
<glyph unicode="&#xa8;" horiz-adv-x="757" d="M162 1247q0 31 21.5 51.5t52.5 20.5t51 -20.5t20 -51.5t-20 -52t-51 -21t-52.5 21t-21.5 52zM449 1247q0 31 21 51.5t52 20.5t51.5 -20.5t20.5 -51.5t-20.5 -52t-51.5 -21t-52 21t-21 52z" />
<glyph unicode="&#xa9;" horiz-adv-x="1619" d="M102 682q0 191 95.5 354.5t259 259t354.5 95.5q193 0 356.5 -98t257 -261t93.5 -350q0 -191 -95 -354t-258 -258t-354 -95t-354.5 95t-259 258t-95.5 354zM190 682q0 -166 84 -308t227.5 -225t309.5 -83t308 83t225 225t83 308q0 129 -49.5 244.5t-133 197t-196.5 129 t-237 47.5q-126 0 -241.5 -51t-198.5 -135.5t-132 -198t-49 -233.5zM467 672q0 183 98.5 296t259.5 113q54 0 107 -18t77 -33t33 -24l-43 -62q-2 1 -16 10.5t-22 14t-26 13t-33.5 13t-39.5 8t-49 3.5q-117 0 -187.5 -89.5t-70.5 -230.5q0 -138 71.5 -220.5t182.5 -82.5 q21 0 41.5 2t37 5.5t32.5 8t27.5 9t23.5 10t18 9t14 8.5t9 5l39 -61q-27 -25 -94.5 -51.5t-149.5 -26.5q-148 0 -244 100t-96 271z" />
<glyph unicode="&#xab;" horiz-adv-x="915" d="M133 508l281 381l69 -49l-219 -332l219 -342l-69 -47zM432 508l281 381l69 -49l-219 -332l219 -342l-69 -47z" />
<glyph unicode="&#xad;" horiz-adv-x="995" d="M178 475v78h639v-78h-639z" />
<glyph unicode="&#xae;" horiz-adv-x="1099" d="M102 940q0 186 130.5 317.5t316.5 131.5t317 -131.5t131 -317.5t-131 -316t-317 -130t-316.5 130t-130.5 316zM178 940q0 -157 107 -263t264 -106t265 106.5t108 262.5q0 157 -108 264t-265 107t-264 -107t-107 -264zM395 698v494h117q61 0 99.5 -8.5t66.5 -36.5 q37 -37 37 -96q0 -43 -29 -77.5t-94 -37.5q26 -1 44 -12.5t25.5 -24t20.5 -39.5l78 -162h-78l-61 127q-28 57 -46 69.5t-75 12.5h-33v-209h-72zM467 969h23h26.5t25.5 1t26.5 3.5t23.5 6t22 10.5l15.5 15.5t12 21t3.5 28.5q0 73 -129 73h-49v-159z" />
<glyph unicode="&#xb4;" horiz-adv-x="757" d="M150 1180l415 192l43 -98l-428 -158z" />
<glyph unicode="&#xb8;" horiz-adv-x="757" d="M219 -412l25 58q58 -25 96 -25q64 0 91.5 32.5t27.5 72.5q0 44 -28.5 72t-74.5 28q-48 0 -86 -27l-43 25l37 176h66l-23 -125q32 19 72 19q73 0 117.5 -45t44.5 -119q0 -79 -56.5 -126.5t-128.5 -47.5q-75 0 -137 32z" />
<glyph unicode="&#xbb;" horiz-adv-x="915" d="M133 166l219 342l-219 332l70 49l280 -381l-280 -389zM432 166l219 342l-219 332l70 49l280 -381l-280 -389z" />
<glyph unicode="&#x104;" horiz-adv-x="1161" d="M27 0l497 1366h109l502 -1366q-56 -36 -89.5 -77t-33.5 -103t36.5 -97.5t98.5 -35.5q69 0 147 39l31 -62q-5 -5 -26.5 -17t-70.5 -26t-100 -14q-94 0 -148 57.5t-54 155.5q0 65 29 112.5t81 69.5l-151 418h-619l-151 -420h-88zM297 502h559l-281 772z" />
<glyph unicode="&#x105;" horiz-adv-x="929" d="M84 266q0 64 23.5 115.5t57.5 84t88.5 56t101 35.5t110 18.5t100.5 7.5t88 1h60v53q0 5 0.5 31t0 34.5t-2 31t-5 34t-8.5 29t-14.5 31.5t-21.5 26q-70 70 -205 70q-70 0 -137.5 -21t-97 -37.5t-36.5 -23.5l-43 61q3 4 17.5 13.5t44.5 24.5t66.5 28t89.5 22.5t108 9.5 q160 0 250 -90q45 -45 61.5 -102.5t16.5 -169.5v-639q-56 -36 -89.5 -77t-33.5 -103t36.5 -97.5t98.5 -35.5q69 0 147 39l31 -62q-5 -5 -26 -17t-70 -26t-100 -14q-94 0 -148.5 57.5t-54.5 155.5q0 67 32 115t93 71v68q-1 -1 -20.5 -11.5t-35.5 -19t-47 -21.5t-61 -21 t-70.5 -14.5t-81.5 -6.5q-140 0 -226.5 78t-86.5 208zM172 264q0 -85 60.5 -146t185.5 -61q28 0 56.5 3.5t53 9.5t49 14.5t43.5 16t36.5 16t28.5 14.5t19 11l9 5v363h-72q-84 0 -151.5 -6.5t-128 -23.5t-101.5 -44t-64.5 -70.5t-23.5 -101.5z" />
<glyph unicode="&#x10c;" horiz-adv-x="1222" d="M117 672q0 167 52 305t141.5 227.5t206.5 138t249 48.5q82 0 154.5 -13.5t120 -34.5t71 -34.5t37.5 -24.5l-43 -72q-146 91 -330 91q-115 0 -218 -42.5t-180.5 -120t-123 -194.5t-45.5 -258q0 -285 150 -455t403 -170q31 0 61 2.5t55.5 7t51 10.5t45 12.5t39.5 14.5 t33.5 14.5t28 14t21.5 12t16 9.5l9 6l47 -68q-11 -11 -39.5 -28t-79.5 -39.5t-131 -38t-169 -15.5q-132 0 -247 47t-201 134t-135.5 219.5t-49.5 294.5zM475 1649l39 61l260 -137l260 137l43 -61l-303 -185z" />
<glyph unicode="&#x10d;" horiz-adv-x="927" d="M92 465q0 237 131 385.5t346 148.5q76 0 145.5 -22t97 -39.5t38.5 -28.5l-43 -63q-1 0 -8 5t-12.5 8.5t-17 9.5t-23 11t-26.5 11t-32 10.5t-36.5 8.5t-42 6t-46.5 2q-173 0 -278 -121.5t-105 -313.5q0 -190 103 -303.5t264 -113.5q145 0 276 75l39 -67q-16 -13 -52 -31.5 t-112.5 -39.5t-154.5 -21q-199 0 -325 129t-126 354zM250 1311l39 61l260 -137l260 137l43 -61l-303 -185z" />
<glyph unicode="&#x116;" horiz-adv-x="999" d="M180 0v1366h692v-80h-604v-528h568v-76h-568v-600h621v-82h-709zM453 1571q0 31 21 51t52 20t51.5 -20t20.5 -51t-20.5 -52.5t-51.5 -21.5t-52 21.5t-21 52.5z" />
<glyph unicode="&#x117;" horiz-adv-x="993" d="M92 481q0 239 118.5 378.5t319.5 139.5q162 0 266.5 -120.5t104.5 -333.5q0 -16 -4 -62h-717q0 -191 95.5 -304t265.5 -113q76 0 148.5 21t106.5 42l35 21l41 -70q-4 -4 -20 -14t-48.5 -25t-70.5 -27.5t-91.5 -22t-106.5 -9.5q-205 0 -324 136.5t-119 362.5zM184 561h631 q0 68 -17 131t-50.5 116.5t-89.5 85.5t-128 32q-138 0 -237.5 -100t-108.5 -265zM453 1247q0 31 21 51.5t52 20.5t51.5 -20.5t20.5 -51.5t-20.5 -52t-51.5 -21t-52 21t-21 52z" />
<glyph unicode="&#x118;" horiz-adv-x="757" d="M180 0v1366h692v-80h-604v-528h568v-76h-568v-600h621v-82q-56 -36 -89.5 -77t-33.5 -103t36.5 -97.5t98.5 -35.5q70 0 148 39l30 -62q-5 -5 -26 -17t-70 -26t-100 -14q-94 0 -148.5 57.5t-54.5 155.5q0 112 96 180h-596z" />
<glyph unicode="&#x119;" horiz-adv-x="993" d="M92 481q0 239 118.5 378.5t319.5 139.5q162 0 266.5 -120.5t104.5 -333.5q0 -16 -4 -62h-717q0 -191 95.5 -304t265.5 -113q76 0 148.5 21t106.5 42l35 21l41 -70q-31 -23 -80 -43.5t-89.5 -36t-79 -37t-60.5 -57.5t-22 -86q0 -62 36.5 -97.5t98.5 -35.5q69 0 147 39 l31 -62q-5 -5 -26.5 -17t-70.5 -26t-100 -14q-94 0 -148 57.5t-54 155.5q0 59 22 101t55 61q-207 1 -323.5 137.5t-116.5 361.5zM184 561h631q0 68 -17 131t-50.5 116.5t-89.5 85.5t-128 32q-138 0 -237.5 -100t-108.5 -265z" />
<glyph unicode="&#x12e;" horiz-adv-x="448" d="M59 -180q0 136 121 184v1362h88v-1366q-56 -36 -89.5 -77t-33.5 -103t37 -97.5t99 -35.5q69 0 147 39l31 -62q-5 -5 -26.5 -17t-70.5 -26t-100 -14q-94 0 -148.5 57.5t-54.5 155.5z" />
<glyph unicode="&#x12f;" horiz-adv-x="378" d="M23 -180q0 137 124 186v971h84v-977q-55 -36 -88.5 -77t-33.5 -103t36.5 -97.5t98.5 -35.5q69 0 147 39l31 -62q-5 -5 -26.5 -17t-70.5 -26t-100 -14q-94 0 -148 57.5t-54 155.5zM127 1323q0 26 18.5 43.5t44.5 17.5t44 -17.5t18 -43.5t-18 -44.5t-44 -18.5t-44.5 18.5 t-18.5 44.5z" />
<glyph unicode="&#x160;" horiz-adv-x="1030" d="M104 119l52 67l10 -8l22 -16t30.5 -20.5t39 -23t46 -22t53 -19.5t58 -13t62.5 -5q160 0 246 82.5t86 220.5q0 101 -78 179q-44 44 -117 83.5t-138 64t-138 64t-117 83.5q-82 82 -82 215q0 149 106 244.5t279 95.5q224 -1 361 -144l-56 -55l-10 10q-10 10 -21.5 19.5 t-30 23t-42 24.5t-52 21.5t-65.5 16.5t-76 6q-135 0 -222 -74.5t-87 -185.5q0 -92 66 -158q42 -42 114 -79t138 -61t140.5 -63t119.5 -84q100 -100 100 -239q0 -174 -107.5 -283t-310.5 -109q-217 0 -379 142zM233 1649l39 61l260 -137l261 137l43 -61l-304 -185z" />
<glyph unicode="&#x161;" horiz-adv-x="831" d="M70 68l39 67q127 -82 264 -82q123 0 193.5 52.5t70.5 146.5q0 72 -55 127q-31 31 -88.5 57t-112 42.5t-115.5 45.5t-96 64q-64 64 -64 166q0 112 89 178.5t221 66.5q75 0 144.5 -20t93.5 -33.5t38 -23.5l-39 -66q-17 12 -41.5 24.5t-79.5 29t-108 16.5q-97 0 -164 -45.5 t-67 -124.5q0 -66 45 -111q30 -30 88 -56.5t112.5 -43t116 -46.5t98.5 -67q72 -72 72 -172q0 -134 -92.5 -208.5t-251.5 -74.5q-52 0 -102.5 8.5t-86 21t-64 26t-42 23t-16.5 12.5zM113 1311l39 61l260 -137l260 137l43 -61l-303 -185z" />
<glyph unicode="&#x16a;" horiz-adv-x="1239" d="M159.5 483q-0.5 15 0 72.5t0.5 71.5v739h88v-881q0 -57 2 -92.5t10.5 -81t27.5 -82t50 -67.5q105 -105 289 -105q78 0 149 25.5t115 69.5q25 25 42.5 50t28.5 60.5t17 59.5t8.5 78t3 82.5t0.5 103.5v780h88v-770v-52.5v-56t-1 -51.5t-3.5 -55.5t-6.5 -50t-10 -52.5 t-15 -46.5t-20.5 -48.5t-27 -41.5t-34.5 -41.5q-123 -123 -340 -123q-218 0 -345 127q-21 21 -38 43t-29 50.5t-20.5 47.5t-14 57t-8.5 54.5t-4.5 64t-2 62.5zM301 1501v78h639v-78h-639z" />
<glyph unicode="&#x16b;" horiz-adv-x="1003" d="M133 385v592h84v-600v-17q0 -45 1 -69t6 -59.5t18 -61.5t34 -47q68 -68 177 -68q34 0 69.5 5.5t65.5 14.5t56.5 19.5t49.5 22.5t37.5 20t27.5 17l13 8v815h84v-977h-84v84q-1 -1 -16 -10.5t-28.5 -17t-37 -19.5t-49 -21t-56 -18t-67.5 -13.5t-76 -4.5q-137 0 -225 88 q-56 56 -70 124.5t-14 192.5zM203 1212v78h583v-78h-583z" />
<glyph unicode="&#x172;" horiz-adv-x="1239" d="M159.5 483q-0.5 15 0 72.5t0.5 71.5v739h88v-881q0 -57 2 -92.5t10.5 -81t27.5 -82t50 -67.5q105 -105 289 -105q78 0 149 25.5t115 69.5q25 25 42.5 50t28.5 60.5t17 59.5t8.5 78t3 82.5t0.5 103.5v780h88v-770v-52.5v-56t-1 -51.5t-3.5 -55.5t-6.5 -50t-10 -52.5 t-15 -46.5t-20.5 -48.5t-27 -41.5t-34.5 -41.5q-34 -34 -90.5 -69t-96 -57t-70 -62t-30.5 -92q0 -62 36.5 -97.5t98.5 -35.5q69 0 147 39l31 -62q-5 -5 -26 -17t-70 -26t-100 -14q-94 0 -148.5 57.5t-54.5 155.5q0 54 20 97.5t56 64.5q-25 -5 -43 -5q-218 0 -345 127 q-21 21 -38 43t-29 50.5t-20.5 47.5t-14 57t-8.5 54.5t-4.5 64t-2 62.5z" />
<glyph unicode="&#x173;" horiz-adv-x="1003" d="M133 385v592h84v-600v-17q0 -45 1 -69t6 -59.5t18 -61.5t34 -47q68 -68 177 -68q34 0 69.5 5.5t65.5 14.5t56.5 19.5t49.5 22.5t37.5 20t27.5 17l13 8v815h84v-977q-56 -36 -89.5 -77t-33.5 -103t36.5 -97.5t98.5 -35.5q70 0 148 39l31 -62q-5 -5 -26.5 -17t-70.5 -26 t-100 -14q-94 0 -148.5 57.5t-54.5 155.5q0 136 125 186v78q-1 -1 -16 -10.5t-28.5 -17t-37 -19.5t-49 -21t-56 -18t-67.5 -13.5t-76 -4.5q-137 0 -225 88q-56 56 -70 124.5t-14 192.5z" />
<glyph unicode="&#x17d;" horiz-adv-x="1101" d="M98 0v72l787 1214h-744v80h844v-72l-780 -1212h796v-82h-903zM252 1649l39 61l260 -137l260 137l43 -61l-303 -185z" />
<glyph unicode="&#x17e;" horiz-adv-x="925" d="M90 0v70l598 835h-565v72h663v-68l-589 -833h612v-76h-719zM160 1311l39 61l260 -137l260 137l43 -61l-303 -185z" />
<glyph unicode="&#x2c6;" horiz-adv-x="757" d="M78 1188l303 184l299 -184l-39 -62l-260 138l-260 -138z" />
<glyph unicode="&#x2da;" horiz-adv-x="757" d="M184 1280q0 83 57.5 139t137.5 56q82 0 138 -58t56 -137q0 -80 -57.5 -137.5t-136.5 -57.5t-137 57.5t-58 137.5zM258 1280q0 -50 36 -85.5t85 -35.5q52 0 87.5 35.5t35.5 85.5q0 53 -36 88t-87 35q-49 0 -85 -36.5t-36 -86.5z" />
<glyph unicode="&#x2dc;" horiz-adv-x="757" d="M78 1237q33 28 51 40.5t54 26t77 13.5q38 0 116 -24.5t116 -24.5q21 0 40.5 3t32 7t25 11t18.5 11.5t14 11t9 7.5l49 -59q-15 -15 -25 -23.5t-35 -25t-58.5 -25t-72.5 -8.5q-36 0 -112 22.5t-117 22.5q-33 0 -59.5 -7.5t-37 -14t-34.5 -23.5z" />
<glyph unicode="&#x2000;" horiz-adv-x="855" />
<glyph unicode="&#x2001;" horiz-adv-x="1710" />
<glyph unicode="&#x2002;" horiz-adv-x="855" />
<glyph unicode="&#x2003;" horiz-adv-x="1710" />
<glyph unicode="&#x2004;" horiz-adv-x="570" />
<glyph unicode="&#x2005;" horiz-adv-x="427" />
<glyph unicode="&#x2006;" horiz-adv-x="285" />
<glyph unicode="&#x2007;" horiz-adv-x="285" />
<glyph unicode="&#x2008;" horiz-adv-x="213" />
<glyph unicode="&#x2009;" horiz-adv-x="342" />
<glyph unicode="&#x200a;" horiz-adv-x="95" />
<glyph unicode="&#x2010;" horiz-adv-x="995" d="M178 475v78h639v-78h-639z" />
<glyph unicode="&#x2011;" horiz-adv-x="995" d="M178 475v78h639v-78h-639z" />
<glyph unicode="&#x2012;" horiz-adv-x="995" d="M178 475v78h639v-78h-639z" />
<glyph unicode="&#x2013;" horiz-adv-x="1300" d="M178 475v78h944v-78h-944z" />
<glyph unicode="&#x2014;" horiz-adv-x="2033" d="M178 475v78h1677v-78h-1677z" />
<glyph unicode="&#x2018;" horiz-adv-x="360" d="M76 1026q0 64 17.5 128t44 111t47 76t36.5 45l64 -43q-8 -10 -20.5 -30t-32 -60.5t-33 -101t-13.5 -125.5h-110z" />
<glyph unicode="&#x2019;" horiz-adv-x="360" d="M76 1049q13 16 31 45.5t42.5 108.5t24.5 163h111q0 -64 -18 -128t-44.5 -111t-47 -76t-36.5 -45z" />
<glyph unicode="&#x201a;" horiz-adv-x="360" d="M76 -193q8 10 20 30.5t32 61t33 101t13 125.5h111q0 -64 -18 -128t-44.5 -111t-47 -76.5t-36.5 -45.5z" />
<glyph unicode="&#x201c;" horiz-adv-x="598" d="M76 1026q0 64 17.5 128t44 111t47 76t36.5 45l64 -43q-8 -10 -20.5 -30t-32 -60.5t-33 -101t-13.5 -125.5h-110zM313 1026q0 64 18 128t44.5 111t47 76t36.5 45l63 -43q-13 -16 -31 -45.5t-42.5 -108.5t-24.5 -163h-111z" />
<glyph unicode="&#x201d;" horiz-adv-x="598" d="M76 1049q13 16 31 45.5t42.5 108.5t24.5 163h111q0 -64 -18 -128t-44.5 -111t-47 -76t-36.5 -45zM313 1049q8 10 20.5 30t32 60.5t33 101t13.5 125.5h110q0 -64 -17.5 -128t-44 -111t-47 -76t-36.5 -45z" />
<glyph unicode="&#x201e;" horiz-adv-x="598" d="M76 -193q8 10 20 30.5t32 61t33 101t13 125.5h111q0 -64 -18 -128t-44.5 -111t-47 -76.5t-36.5 -45.5zM313 -193q8 10 20.5 30t32 61t33 101.5t13.5 125.5h110q0 -64 -17.5 -128t-44 -111t-47 -76.5t-36.5 -45.5z" />
<glyph unicode="&#x2026;" horiz-adv-x="1228" d="M133 55q0 29 21.5 50.5t50.5 21.5t50 -21.5t21 -50.5t-21 -50t-50 -21t-50.5 21t-21.5 50zM543 55q0 29 21 50.5t50 21.5t50.5 -21.5t21.5 -50.5t-21.5 -50t-50.5 -21t-50 21t-21 50zM952 55q0 29 21.5 50.5t50.5 21.5t50.5 -21.5t21.5 -50.5t-21.5 -50t-50.5 -21 t-50.5 21t-21.5 50z" />
<glyph unicode="&#x202f;" horiz-adv-x="342" />
<glyph unicode="&#x2039;" horiz-adv-x="616" d="M133 508l281 381l69 -49l-219 -332l219 -342l-69 -47z" />
<glyph unicode="&#x203a;" horiz-adv-x="616" d="M133 166l219 342l-219 332l70 49l280 -381l-280 -389z" />
<glyph unicode="&#x205f;" horiz-adv-x="427" />
<glyph unicode="&#x20ac;" d="M68 532v78h127q-2 49 -2 84q0 21 2 62h-127v78h133q1 23 6 56t20 88t37.5 108t62.5 110t90.5 99t126 69t165.5 27q57 0 113 -13.5t93.5 -32.5t60 -33t28.5 -20l-48 -65q-118 84 -243 84q-78 0 -142 -24.5t-105.5 -60t-74 -88t-48.5 -94.5t-27.5 -94t-14 -73t-4.5 -43h561 v-78h-567q-2 -27 -2 -82q0 -19 2 -64h567v-78h-561q0 -2 1 -6q3 -27 6 -49.5t15 -73.5t28.5 -91t47.5 -89.5t70 -82.5t98.5 -56t130.5 -23q32 0 63 4t56.5 10.5t50.5 16t42.5 18.5t35.5 19t28 17l20 14t11 8l50 -66q-51 -38 -82 -55q-129 -70 -273 -70q-89 0 -163.5 26 t-123.5 66t-87.5 95.5t-60 106.5t-35.5 108t-18.5 90.5t-6.5 62.5h-133z" />
<glyph unicode="&#x2122;" horiz-adv-x="1464" d="M66 1300v66h491v-66h-207v-659h-78v659h-206zM573 641l86 725h80l222 -590l213 590h81l88 -725h-83l-66 571l-209 -571h-61l-207 571l-64 -571h-80z" />
<glyph unicode="&#xe000;" horiz-adv-x="972" d="M0 0v973h973v-973h-973z" />
</font>
</defs>
</svg>
